<svg width="27" height="26" viewBox="0 0 27 26" fill="none" xmlns="http://www.w3.org/2000/svg">
<path d="M25.0458 19.8062C24.1296 18.8832 21.9107 17.5361 20.8342 16.9933C19.4322 16.2871 19.3168 16.2294 18.2149 17.0481C17.4799 17.5944 16.9912 18.0824 16.131 17.899C15.2708 17.7155 13.4015 16.6811 11.7647 15.0497C10.128 13.4182 9.03351 11.4948 8.84946 10.6376C8.66542 9.78029 9.16159 9.29743 9.70275 8.56073C10.4655 7.52231 10.4078 7.34924 9.75583 5.94738C9.24755 4.85704 7.86117 2.65906 6.93461 1.74756C5.94343 0.768566 5.94343 0.941635 5.30476 1.20701C4.78481 1.42576 4.28598 1.69167 3.81453 2.0014C2.89143 2.61464 2.37911 3.12404 2.02083 3.88959C1.66256 4.65513 1.50159 6.44986 3.35183 9.81087C5.20207 13.1719 6.50017 14.8905 9.18697 17.5696C11.8738 20.2487 13.9398 21.6892 16.96 23.383C20.6963 25.4754 22.1294 25.0675 22.8973 24.7098C23.6652 24.3522 24.177 23.8445 24.7914 22.9215C25.1019 22.4508 25.3685 21.9526 25.5876 21.4331C25.8535 20.7967 26.0266 20.7967 25.0458 19.8062Z" stroke="#1C2752" stroke-width="2" stroke-miterlimit="10"/>
</svg>
