<svg width="20" height="16" viewBox="0 0 20 16" fill="none" xmlns="http://www.w3.org/2000/svg">
<path d="M19.7519 2.17083C19.0354 2.48214 18.2774 2.68723 17.5017 2.77963C18.3169 2.30229 18.9299 1.54396 19.2258 0.646851C18.4551 1.09752 17.6133 1.41372 16.7365 1.58193C16.3673 1.19498 15.9233 0.887148 15.4314 0.677149C14.9395 0.467151 14.41 0.35937 13.8752 0.360358C11.7098 0.360358 9.95739 2.08727 9.95739 4.21607C9.95585 4.51218 9.98978 4.80741 10.0585 5.09545C8.5057 5.02265 6.98524 4.62655 5.59434 3.93247C4.20344 3.23839 2.97273 2.26162 1.98095 1.06465C1.63301 1.65121 1.44901 2.32046 1.44816 3.00246C1.44816 4.33942 2.14569 5.52121 3.19895 6.21356C2.57492 6.19875 1.96368 6.03359 1.41712 5.7321V5.77984C1.41712 7.65 2.77 9.20582 4.56058 9.55996C4.22387 9.64972 3.87689 9.6952 3.52841 9.69524C3.28114 9.69567 3.03444 9.67168 2.79189 9.62362C3.28967 11.1556 4.73845 12.2697 6.45462 12.3015C5.0601 13.3762 3.34801 13.9571 1.58742 13.9528C1.27492 13.9524 0.962697 13.9338 0.652344 13.8971C2.44339 15.0408 4.52534 15.6458 6.65039 15.64C13.8668 15.64 17.8093 9.76289 17.8093 4.66571C17.8093 4.49859 17.8049 4.33146 17.7969 4.16832C18.5622 3.62401 19.2242 2.94759 19.7519 2.17083Z" fill="#1C2752"/>
</svg>
